<?xml version="1.0" encoding="UTF-8" standalone="no"?><svg xmlns="http://www.w3.org/2000/svg" xmlns:xlink="http://www.w3.org/1999/xlink" contentScriptType="application/ecmascript" contentStyleType="text/css" height="1379px" preserveAspectRatio="none" style="width:528px;height:1379px;" version="1.1" viewBox="0 0 528 1379" width="528px" zoomAndPan="magnify"><defs><filter height="300%" id="fh1xwjt5is4kc" width="300%" x="-1" y="-1"><feGaussianBlur result="blurOut" stdDeviation="2.0"/><feColorMatrix in="blurOut" result="blurOut2" type="matrix" values="0 0 0 0 0 0 0 0 0 0 0 0 0 0 0 0 0 0 .4 0"/><feOffset dx="4.0" dy="4.0" in="blurOut2" result="blurOut3"/><feBlend in="SourceGraphic" in2="blurOut3" mode="normal"/></filter></defs><g><text fill="#000000" font-family="sans-serif" font-size="18" lengthAdjust="spacingAndGlyphs" textLength="297" x="111.5" y="26.708">Page Installed/Available Buckets</text><text fill="#000000" font-family="sans-serif" font-size="18" lengthAdjust="spacingAndGlyphs" textLength="144" x="191" y="47.6611">Info Application</text><text fill="#000000" font-family="sans-serif" font-size="18" lengthAdjust="spacingAndGlyphs" textLength="0" x="266" y="68.6143"/><ellipse cx="144" cy="111.5576" fill="#000000" filter="url(#fh1xwjt5is4kc)" rx="10" ry="10" style="stroke: none; stroke-width: 1.0;"/><line style="stroke: #A80036; stroke-width: 1.5;" x1="119" x2="228.5" y1="141.5576" y2="141.5576"/><rect fill="#FEFECE" filter="url(#fh1xwjt5is4kc)" height="33.9688" rx="12.5" ry="12.5" style="stroke: #A80036; stroke-width: 1.5;" width="141" x="48.5" y="161.5576"/><text fill="#000000" font-family="sans-serif" font-size="12" lengthAdjust="spacingAndGlyphs" textLength="121" x="58.5" y="182.6963">Request ListBuckets</text><ellipse cx="228.5" cy="178.542" fill="#FFFFFF" filter="url(#fh1xwjt5is4kc)" rx="11" ry="11" style="stroke: #000000; stroke-width: 1.0;"/><ellipse cx="228.5" cy="178.542" fill="#000000" rx="6" ry="6" style="stroke: #7F7F7F; stroke-width: 1.0;"/><line style="stroke: #A80036; stroke-width: 1.5;" x1="119" x2="144" y1="215.5264" y2="215.5264"/><rect fill="#FFFFFF" filter="url(#fh1xwjt5is4kc)" height="136.2344" style="stroke: #000000; stroke-width: 2.0;" width="160" x="64" y="225.5264"/><path d="M132,226.5264 L132,234.8232 L122,244.8232 L64,244.8232 " fill="none" style="stroke: #000000; stroke-width: 2.0;"/><text fill="#000000" font-family="sans-serif" font-size="14" lengthAdjust="spacingAndGlyphs" textLength="58" x="67" y="239.5215">Buckets</text><rect fill="#FEFECE" filter="url(#fh1xwjt5is4kc)" height="33.9688" rx="12.5" ry="12.5" style="stroke: #A80036; stroke-width: 1.5;" width="118" x="85" y="315.792"/><text fill="#000000" font-family="sans-serif" font-size="12" lengthAdjust="spacingAndGlyphs" textLength="98" x="95" y="336.9307">React formatting</text><line style="stroke: #A80036; stroke-width: 1.5;" x1="119" x2="254" y1="381.7607" y2="381.7607"/><rect fill="#FEFECE" filter="url(#fh1xwjt5is4kc)" height="33.9688" rx="12.5" ry="12.5" style="stroke: #A80036; stroke-width: 1.5;" width="192" x="23" y="401.7607"/><text fill="#000000" font-family="sans-serif" font-size="12" lengthAdjust="spacingAndGlyphs" textLength="172" x="33" y="422.8994">Request GetInstalledBuckets</text><ellipse cx="254" cy="418.7451" fill="#FFFFFF" filter="url(#fh1xwjt5is4kc)" rx="11" ry="11" style="stroke: #000000; stroke-width: 1.0;"/><ellipse cx="254" cy="418.7451" fill="#000000" rx="6" ry="6" style="stroke: #7F7F7F; stroke-width: 1.0;"/><line style="stroke: #A80036; stroke-width: 1.5;" x1="119" x2="144" y1="455.7295" y2="455.7295"/><rect fill="#FFFFFF" filter="url(#fh1xwjt5is4kc)" height="136.2344" style="stroke: #000000; stroke-width: 2.0;" width="211" x="38.5" y="465.7295"/><path d="M160.5,466.7295 L160.5,475.0264 L150.5,485.0264 L38.5,485.0264 " fill="none" style="stroke: #000000; stroke-width: 2.0;"/><text fill="#000000" font-family="sans-serif" font-size="14" lengthAdjust="spacingAndGlyphs" textLength="112" x="41.5" y="479.7246">InsalledBuckets</text><rect fill="#FEFECE" filter="url(#fh1xwjt5is4kc)" height="33.9688" rx="12.5" ry="12.5" style="stroke: #A80036; stroke-width: 1.5;" width="118" x="85" y="555.9951"/><text fill="#000000" font-family="sans-serif" font-size="12" lengthAdjust="spacingAndGlyphs" textLength="98" x="95" y="577.1338">React formatting</text><line style="stroke: #A80036; stroke-width: 1.5;" x1="119" x2="256" y1="621.9639" y2="621.9639"/><rect fill="#FEFECE" filter="url(#fh1xwjt5is4kc)" height="33.9688" rx="12.5" ry="12.5" style="stroke: #A80036; stroke-width: 1.5;" width="196" x="21" y="641.9639"/><text fill="#000000" font-family="sans-serif" font-size="12" lengthAdjust="spacingAndGlyphs" textLength="176" x="31" y="663.1025">Request GetAvailableBuckets</text><ellipse cx="256" cy="658.9482" fill="#FFFFFF" filter="url(#fh1xwjt5is4kc)" rx="11" ry="11" style="stroke: #000000; stroke-width: 1.0;"/><ellipse cx="256" cy="658.9482" fill="#000000" rx="6" ry="6" style="stroke: #7F7F7F; stroke-width: 1.0;"/><line style="stroke: #A80036; stroke-width: 1.5;" x1="119" x2="144" y1="695.9326" y2="695.9326"/><rect fill="#FFFFFF" filter="url(#fh1xwjt5is4kc)" height="136.2344" style="stroke: #000000; stroke-width: 2.0;" width="215" x="36.5" y="705.9326"/><path d="M169.5,706.9326 L169.5,715.2295 L159.5,725.2295 L36.5,725.2295 " fill="none" style="stroke: #000000; stroke-width: 2.0;"/><text fill="#000000" font-family="sans-serif" font-size="14" lengthAdjust="spacingAndGlyphs" textLength="123" x="39.5" y="719.9277">AvailableBuckets</text><rect fill="#FEFECE" filter="url(#fh1xwjt5is4kc)" height="33.9688" rx="12.5" ry="12.5" style="stroke: #A80036; stroke-width: 1.5;" width="118" x="85" y="796.1982"/><text fill="#000000" font-family="sans-serif" font-size="12" lengthAdjust="spacingAndGlyphs" textLength="98" x="95" y="817.3369">React formatting</text><line style="stroke: #A80036; stroke-width: 1.5;" x1="119" x2="247.5" y1="862.167" y2="862.167"/><rect fill="#FEFECE" filter="url(#fh1xwjt5is4kc)" height="33.9688" rx="12.5" ry="12.5" style="stroke: #A80036; stroke-width: 1.5;" width="179" x="29.5" y="882.167"/><text fill="#000000" font-family="sans-serif" font-size="12" lengthAdjust="spacingAndGlyphs" textLength="159" x="39.5" y="903.3057">Request GetAvailableApps</text><ellipse cx="247.5" cy="899.1514" fill="#FFFFFF" filter="url(#fh1xwjt5is4kc)" rx="11" ry="11" style="stroke: #000000; stroke-width: 1.0;"/><ellipse cx="247.5" cy="899.1514" fill="#000000" rx="6" ry="6" style="stroke: #7F7F7F; stroke-width: 1.0;"/><line style="stroke: #A80036; stroke-width: 1.5;" x1="119" x2="144" y1="936.1357" y2="936.1357"/><rect fill="#FFFFFF" filter="url(#fh1xwjt5is4kc)" height="136.2344" style="stroke: #000000; stroke-width: 2.0;" width="198" x="45" y="946.1357"/><path d="M157,947.1357 L157,955.4326 L147,965.4326 L45,965.4326 " fill="none" style="stroke: #000000; stroke-width: 2.0;"/><text fill="#000000" font-family="sans-serif" font-size="14" lengthAdjust="spacingAndGlyphs" textLength="102" x="48" y="960.1309">AvailableApps</text><rect fill="#FEFECE" filter="url(#fh1xwjt5is4kc)" height="33.9688" rx="12.5" ry="12.5" style="stroke: #A80036; stroke-width: 1.5;" width="118" x="85" y="1036.4014"/><text fill="#000000" font-family="sans-serif" font-size="12" lengthAdjust="spacingAndGlyphs" textLength="98" x="95" y="1057.54">React formatting</text><line style="stroke: #A80036; stroke-width: 1.5;" x1="119" x2="228" y1="1102.3701" y2="1102.3701"/><rect fill="#FEFECE" filter="url(#fh1xwjt5is4kc)" height="33.9688" rx="12.5" ry="12.5" style="stroke: #A80036; stroke-width: 1.5;" width="140" x="49" y="1122.3701"/><text fill="#000000" font-family="sans-serif" font-size="12" lengthAdjust="spacingAndGlyphs" textLength="120" x="59" y="1143.5088">Request GetAppinfo</text><ellipse cx="228" cy="1139.3545" fill="#FFFFFF" filter="url(#fh1xwjt5is4kc)" rx="11" ry="11" style="stroke: #000000; stroke-width: 1.0;"/><ellipse cx="228" cy="1139.3545" fill="#000000" rx="6" ry="6" style="stroke: #7F7F7F; stroke-width: 1.0;"/><line style="stroke: #A80036; stroke-width: 1.5;" x1="119" x2="144" y1="1176.3389" y2="1176.3389"/><rect fill="#FFFFFF" filter="url(#fh1xwjt5is4kc)" height="136.2344" style="stroke: #000000; stroke-width: 2.0;" width="159" x="64.5" y="1186.3389"/><path d="M132.5,1187.3389 L132.5,1195.6357 L122.5,1205.6357 L64.5,1205.6357 " fill="none" style="stroke: #000000; stroke-width: 2.0;"/><text fill="#000000" font-family="sans-serif" font-size="14" lengthAdjust="spacingAndGlyphs" textLength="58" x="67.5" y="1200.334">AppInfo</text><rect fill="#FEFECE" filter="url(#fh1xwjt5is4kc)" height="33.9688" rx="12.5" ry="12.5" style="stroke: #A80036; stroke-width: 1.5;" width="118" x="85" y="1276.6045"/><text fill="#000000" font-family="sans-serif" font-size="12" lengthAdjust="spacingAndGlyphs" textLength="98" x="95" y="1297.7432">React formatting</text><ellipse cx="144" cy="1352.5732" fill="#FFFFFF" filter="url(#fh1xwjt5is4kc)" rx="10" ry="10" style="stroke: #000000; stroke-width: 1.5;"/><line style="stroke: #000000; stroke-width: 2.5;" x1="137.8128" x2="150.1872" y1="1346.3861" y2="1358.7604"/><line style="stroke: #000000; stroke-width: 2.5;" x1="150.1872" x2="137.8128" y1="1346.3861" y2="1358.7604"/><line style="stroke: #000000; stroke-width: 2.0;" x1="15" x2="15" y1="75.6045" y2="1362.5732"/><rect fill="#FFFFFF" filter="url(#fh1xwjt5is4kc)" height="136.2344" style="stroke: #000000; stroke-width: 2.0;" width="160" x="310.5" y="225.5264"/><path d="M378.5,226.5264 L378.5,234.8232 L368.5,244.8232 L310.5,244.8232 " fill="none" style="stroke: #000000; stroke-width: 2.0;"/><text fill="#000000" font-family="sans-serif" font-size="14" lengthAdjust="spacingAndGlyphs" textLength="58" x="313.5" y="239.5215">Buckets</text><rect fill="#FEFECE" filter="url(#fh1xwjt5is4kc)" height="33.9688" rx="12.5" ry="12.5" style="stroke: #A80036; stroke-width: 1.5;" width="140" x="320.5" y="261.8232"/><text fill="#000000" font-family="sans-serif" font-size="12" lengthAdjust="spacingAndGlyphs" textLength="120" x="330.5" y="282.9619">Process ListBuckets</text><rect fill="#FFFFFF" filter="url(#fh1xwjt5is4kc)" height="136.2344" style="stroke: #000000; stroke-width: 2.0;" width="211" x="285" y="465.7295"/><path d="M407,466.7295 L407,475.0264 L397,485.0264 L285,485.0264 " fill="none" style="stroke: #000000; stroke-width: 2.0;"/><text fill="#000000" font-family="sans-serif" font-size="14" lengthAdjust="spacingAndGlyphs" textLength="112" x="288" y="479.7246">InsalledBuckets</text><rect fill="#FEFECE" filter="url(#fh1xwjt5is4kc)" height="33.9688" rx="12.5" ry="12.5" style="stroke: #A80036; stroke-width: 1.5;" width="191" x="295" y="502.0264"/><text fill="#000000" font-family="sans-serif" font-size="12" lengthAdjust="spacingAndGlyphs" textLength="171" x="305" y="523.165">Process GetInstalledBuckets</text><rect fill="#FFFFFF" filter="url(#fh1xwjt5is4kc)" height="136.2344" style="stroke: #000000; stroke-width: 2.0;" width="215" x="283" y="705.9326"/><path d="M416,706.9326 L416,715.2295 L406,725.2295 L283,725.2295 " fill="none" style="stroke: #000000; stroke-width: 2.0;"/><text fill="#000000" font-family="sans-serif" font-size="14" lengthAdjust="spacingAndGlyphs" textLength="123" x="286" y="719.9277">AvailableBuckets</text><rect fill="#FEFECE" filter="url(#fh1xwjt5is4kc)" height="33.9688" rx="12.5" ry="12.5" style="stroke: #A80036; stroke-width: 1.5;" width="195" x="293" y="742.2295"/><text fill="#000000" font-family="sans-serif" font-size="12" lengthAdjust="spacingAndGlyphs" textLength="175" x="303" y="763.3682">Process GetAvailableBuckets</text><rect fill="#FFFFFF" filter="url(#fh1xwjt5is4kc)" height="136.2344" style="stroke: #000000; stroke-width: 2.0;" width="198" x="291.5" y="946.1357"/><path d="M403.5,947.1357 L403.5,955.4326 L393.5,965.4326 L291.5,965.4326 " fill="none" style="stroke: #000000; stroke-width: 2.0;"/><text fill="#000000" font-family="sans-serif" font-size="14" lengthAdjust="spacingAndGlyphs" textLength="102" x="294.5" y="960.1309">AvailableApps</text><rect fill="#FEFECE" filter="url(#fh1xwjt5is4kc)" height="33.9688" rx="12.5" ry="12.5" style="stroke: #A80036; stroke-width: 1.5;" width="178" x="301.5" y="982.4326"/><text fill="#000000" font-family="sans-serif" font-size="12" lengthAdjust="spacingAndGlyphs" textLength="158" x="311.5" y="1003.5713">Process GetAvailableApps</text><rect fill="#FFFFFF" filter="url(#fh1xwjt5is4kc)" height="136.2344" style="stroke: #000000; stroke-width: 2.0;" width="159" x="311" y="1186.3389"/><path d="M379,1187.3389 L379,1195.6357 L369,1205.6357 L311,1205.6357 " fill="none" style="stroke: #000000; stroke-width: 2.0;"/><text fill="#000000" font-family="sans-serif" font-size="14" lengthAdjust="spacingAndGlyphs" textLength="58" x="314" y="1200.334">AppInfo</text><rect fill="#FEFECE" filter="url(#fh1xwjt5is4kc)" height="33.9688" rx="12.5" ry="12.5" style="stroke: #A80036; stroke-width: 1.5;" width="139" x="321" y="1222.6357"/><text fill="#000000" font-family="sans-serif" font-size="12" lengthAdjust="spacingAndGlyphs" textLength="119" x="331" y="1243.7744">Process GetAppinfo</text><line style="stroke: #000000; stroke-width: 2.0;" x1="277" x2="277" y1="75.6045" y2="1362.5732"/><line style="stroke: #000000; stroke-width: 2.0;" x1="508" x2="508" y1="75.6045" y2="1362.5732"/><line style="stroke: #A80036; stroke-width: 1.5;" x1="119" x2="119" y1="143.0576" y2="161.5576"/><polygon fill="#A80036" points="115,151.5576,119,161.5576,123,151.5576,119,155.5576" style="stroke: #A80036; stroke-width: 1.0;"/><line style="stroke: #A80036; stroke-width: 1.5;" x1="228.5" x2="228.5" y1="143.0576" y2="167.542"/><polygon fill="#A80036" points="224.5,157.542,228.5,167.542,232.5,157.542,228.5,161.542" style="stroke: #A80036; stroke-width: 1.0;"/><line style="stroke: #A80036; stroke-width: 1.5;" x1="119" x2="119" y1="195.5264" y2="215.5264"/><polygon fill="#A80036" points="115,205.5264,119,215.5264,123,205.5264,119,209.5264" style="stroke: #A80036; stroke-width: 1.0;"/><line style="stroke: #A80036; stroke-width: 1.5;" x1="144" x2="144" y1="121.5576" y2="141.5576"/><polygon fill="#A80036" points="140,131.5576,144,141.5576,148,131.5576,144,135.5576" style="stroke: #A80036; stroke-width: 1.0;"/><line style="stroke: #A80036; stroke-width: 1.5;" x1="119" x2="119" y1="383.2607" y2="401.7607"/><polygon fill="#A80036" points="115,391.7607,119,401.7607,123,391.7607,119,395.7607" style="stroke: #A80036; stroke-width: 1.0;"/><line style="stroke: #A80036; stroke-width: 1.5;" x1="254" x2="254" y1="383.2607" y2="407.7451"/><polygon fill="#A80036" points="250,397.7451,254,407.7451,258,397.7451,254,401.7451" style="stroke: #A80036; stroke-width: 1.0;"/><line style="stroke: #A80036; stroke-width: 1.5;" x1="119" x2="119" y1="435.7295" y2="455.7295"/><polygon fill="#A80036" points="115,445.7295,119,455.7295,123,445.7295,119,449.7295" style="stroke: #A80036; stroke-width: 1.0;"/><line style="stroke: #A80036; stroke-width: 1.5;" x1="144" x2="144" y1="349.7607" y2="381.7607"/><polygon fill="#A80036" points="140,371.7607,144,381.7607,148,371.7607,144,375.7607" style="stroke: #A80036; stroke-width: 1.0;"/><line style="stroke: #A80036; stroke-width: 1.5;" x1="119" x2="119" y1="623.4639" y2="641.9639"/><polygon fill="#A80036" points="115,631.9639,119,641.9639,123,631.9639,119,635.9639" style="stroke: #A80036; stroke-width: 1.0;"/><line style="stroke: #A80036; stroke-width: 1.5;" x1="256" x2="256" y1="623.4639" y2="647.9482"/><polygon fill="#A80036" points="252,637.9482,256,647.9482,260,637.9482,256,641.9482" style="stroke: #A80036; stroke-width: 1.0;"/><line style="stroke: #A80036; stroke-width: 1.5;" x1="119" x2="119" y1="675.9326" y2="695.9326"/><polygon fill="#A80036" points="115,685.9326,119,695.9326,123,685.9326,119,689.9326" style="stroke: #A80036; stroke-width: 1.0;"/><line style="stroke: #A80036; stroke-width: 1.5;" x1="144" x2="144" y1="589.9639" y2="621.9639"/><polygon fill="#A80036" points="140,611.9639,144,621.9639,148,611.9639,144,615.9639" style="stroke: #A80036; stroke-width: 1.0;"/><line style="stroke: #A80036; stroke-width: 1.5;" x1="119" x2="119" y1="863.667" y2="882.167"/><polygon fill="#A80036" points="115,872.167,119,882.167,123,872.167,119,876.167" style="stroke: #A80036; stroke-width: 1.0;"/><line style="stroke: #A80036; stroke-width: 1.5;" x1="247.5" x2="247.5" y1="863.667" y2="888.1514"/><polygon fill="#A80036" points="243.5,878.1514,247.5,888.1514,251.5,878.1514,247.5,882.1514" style="stroke: #A80036; stroke-width: 1.0;"/><line style="stroke: #A80036; stroke-width: 1.5;" x1="119" x2="119" y1="916.1357" y2="936.1357"/><polygon fill="#A80036" points="115,926.1357,119,936.1357,123,926.1357,119,930.1357" style="stroke: #A80036; stroke-width: 1.0;"/><line style="stroke: #A80036; stroke-width: 1.5;" x1="144" x2="144" y1="830.167" y2="862.167"/><polygon fill="#A80036" points="140,852.167,144,862.167,148,852.167,144,856.167" style="stroke: #A80036; stroke-width: 1.0;"/><line style="stroke: #A80036; stroke-width: 1.5;" x1="119" x2="119" y1="1103.8701" y2="1122.3701"/><polygon fill="#A80036" points="115,1112.3701,119,1122.3701,123,1112.3701,119,1116.3701" style="stroke: #A80036; stroke-width: 1.0;"/><line style="stroke: #A80036; stroke-width: 1.5;" x1="228" x2="228" y1="1103.8701" y2="1128.3545"/><polygon fill="#A80036" points="224,1118.3545,228,1128.3545,232,1118.3545,228,1122.3545" style="stroke: #A80036; stroke-width: 1.0;"/><line style="stroke: #A80036; stroke-width: 1.5;" x1="119" x2="119" y1="1156.3389" y2="1176.3389"/><polygon fill="#A80036" points="115,1166.3389,119,1176.3389,123,1166.3389,119,1170.3389" style="stroke: #A80036; stroke-width: 1.0;"/><line style="stroke: #A80036; stroke-width: 1.5;" x1="144" x2="144" y1="1070.3701" y2="1102.3701"/><polygon fill="#A80036" points="140,1092.3701,144,1102.3701,148,1092.3701,144,1096.3701" style="stroke: #A80036; stroke-width: 1.0;"/><line style="stroke: #A80036; stroke-width: 1.5;" x1="144" x2="144" y1="1310.5732" y2="1342.5732"/><polygon fill="#A80036" points="140,1332.5732,144,1342.5732,148,1332.5732,144,1336.5732" style="stroke: #A80036; stroke-width: 1.0;"/><line style="stroke: #A80036; stroke-width: 1.5;" x1="390.5" x2="390.5" y1="295.792" y2="300.792"/><line style="stroke: #A80036; stroke-width: 1.5;" x1="390.5" x2="144" y1="300.792" y2="300.792"/><line style="stroke: #A80036; stroke-width: 1.5;" x1="144" x2="144" y1="300.792" y2="315.792"/><polygon fill="#A80036" points="140,305.792,144,315.792,148,305.792,144,309.792" style="stroke: #A80036; stroke-width: 1.0;"/><line style="stroke: #A80036; stroke-width: 1.5;" x1="144" x2="144" y1="217.0264" y2="226.1748"/><line style="stroke: #A80036; stroke-width: 1.5;" x1="144" x2="390.5" y1="226.1748" y2="226.1748"/><line style="stroke: #A80036; stroke-width: 1.5;" x1="390.5" x2="390.5" y1="226.1748" y2="261.8232"/><polygon fill="#A80036" points="386.5,251.8232,390.5,261.8232,394.5,251.8232,390.5,255.8232" style="stroke: #A80036; stroke-width: 1.0;"/><line style="stroke: #A80036; stroke-width: 1.5;" x1="390.5" x2="390.5" y1="535.9951" y2="540.9951"/><line style="stroke: #A80036; stroke-width: 1.5;" x1="390.5" x2="144" y1="540.9951" y2="540.9951"/><line style="stroke: #A80036; stroke-width: 1.5;" x1="144" x2="144" y1="540.9951" y2="555.9951"/><polygon fill="#A80036" points="140,545.9951,144,555.9951,148,545.9951,144,549.9951" style="stroke: #A80036; stroke-width: 1.0;"/><line style="stroke: #A80036; stroke-width: 1.5;" x1="144" x2="144" y1="457.2295" y2="466.3779"/><line style="stroke: #A80036; stroke-width: 1.5;" x1="144" x2="390.5" y1="466.3779" y2="466.3779"/><line style="stroke: #A80036; stroke-width: 1.5;" x1="390.5" x2="390.5" y1="466.3779" y2="502.0264"/><polygon fill="#A80036" points="386.5,492.0264,390.5,502.0264,394.5,492.0264,390.5,496.0264" style="stroke: #A80036; stroke-width: 1.0;"/><line style="stroke: #A80036; stroke-width: 1.5;" x1="390.5" x2="390.5" y1="776.1982" y2="781.1982"/><line style="stroke: #A80036; stroke-width: 1.5;" x1="390.5" x2="144" y1="781.1982" y2="781.1982"/><line style="stroke: #A80036; stroke-width: 1.5;" x1="144" x2="144" y1="781.1982" y2="796.1982"/><polygon fill="#A80036" points="140,786.1982,144,796.1982,148,786.1982,144,790.1982" style="stroke: #A80036; stroke-width: 1.0;"/><line style="stroke: #A80036; stroke-width: 1.5;" x1="144" x2="144" y1="697.4326" y2="706.5811"/><line style="stroke: #A80036; stroke-width: 1.5;" x1="144" x2="390.5" y1="706.5811" y2="706.5811"/><line style="stroke: #A80036; stroke-width: 1.5;" x1="390.5" x2="390.5" y1="706.5811" y2="742.2295"/><polygon fill="#A80036" points="386.5,732.2295,390.5,742.2295,394.5,732.2295,390.5,736.2295" style="stroke: #A80036; stroke-width: 1.0;"/><line style="stroke: #A80036; stroke-width: 1.5;" x1="390.5" x2="390.5" y1="1016.4014" y2="1021.4014"/><line style="stroke: #A80036; stroke-width: 1.5;" x1="390.5" x2="144" y1="1021.4014" y2="1021.4014"/><line style="stroke: #A80036; stroke-width: 1.5;" x1="144" x2="144" y1="1021.4014" y2="1036.4014"/><polygon fill="#A80036" points="140,1026.4014,144,1036.4014,148,1026.4014,144,1030.4014" style="stroke: #A80036; stroke-width: 1.0;"/><line style="stroke: #A80036; stroke-width: 1.5;" x1="144" x2="144" y1="937.6357" y2="946.7842"/><line style="stroke: #A80036; stroke-width: 1.5;" x1="144" x2="390.5" y1="946.7842" y2="946.7842"/><line style="stroke: #A80036; stroke-width: 1.5;" x1="390.5" x2="390.5" y1="946.7842" y2="982.4326"/><polygon fill="#A80036" points="386.5,972.4326,390.5,982.4326,394.5,972.4326,390.5,976.4326" style="stroke: #A80036; stroke-width: 1.0;"/><line style="stroke: #A80036; stroke-width: 1.5;" x1="390.5" x2="390.5" y1="1256.6045" y2="1261.6045"/><line style="stroke: #A80036; stroke-width: 1.5;" x1="390.5" x2="144" y1="1261.6045" y2="1261.6045"/><line style="stroke: #A80036; stroke-width: 1.5;" x1="144" x2="144" y1="1261.6045" y2="1276.6045"/><polygon fill="#A80036" points="140,1266.6045,144,1276.6045,148,1266.6045,144,1270.6045" style="stroke: #A80036; stroke-width: 1.0;"/><line style="stroke: #A80036; stroke-width: 1.5;" x1="144" x2="144" y1="1177.8389" y2="1186.9873"/><line style="stroke: #A80036; stroke-width: 1.5;" x1="144" x2="390.5" y1="1186.9873" y2="1186.9873"/><line style="stroke: #A80036; stroke-width: 1.5;" x1="390.5" x2="390.5" y1="1186.9873" y2="1222.6357"/><polygon fill="#A80036" points="386.5,1212.6357,390.5,1222.6357,394.5,1212.6357,390.5,1216.6357" style="stroke: #A80036; stroke-width: 1.0;"/><text fill="#000000" font-family="sans-serif" font-size="18" lengthAdjust="spacingAndGlyphs" textLength="77" x="107.5" y="92.3125">WebApp</text><text fill="#000000" font-family="sans-serif" font-size="18" lengthAdjust="spacingAndGlyphs" textLength="109" x="338" y="92.3125">WebService</text><!--MD5=[732b6eca85b59b2bbf0314f29bfb0f18]
@startuml
title Page Installed/Available Buckets \n Info Application \n

|WebApp|

start

split
 :Request ListBuckets;
split again
 stop
end split

partition Buckets {
    |WebService|
    :Process ListBuckets;
    |WebApp|
    :React formatting;
}

split
 :Request GetInstalledBuckets;
split again
 stop
end split

partition InsalledBuckets {
    |WebService|
    :Process GetInstalledBuckets;
    |WebApp|
    :React formatting;
}

split
 :Request GetAvailableBuckets;
split again
 stop
end split

partition AvailableBuckets {
    |WebService|
    :Process GetAvailableBuckets;
    |WebApp|
    :React formatting;
}

split
 :Request GetAvailableApps;
split again
 stop
end split

partition AvailableApps {
    |WebService|
    :Process GetAvailableApps;
    |WebApp|
    :React formatting;
}

split
 :Request GetAppinfo;
split again
 stop
end split

partition AppInfo {
    |WebService|
    :Process GetAppinfo;
    |WebApp|
    :React formatting;
}

end
@enduml

PlantUML version 1.2020.13(Sat Jun 13 12:26:38 UTC 2020)
(GPL source distribution)
Java Runtime: Java(TM) SE Runtime Environment
JVM: Java HotSpot(TM) 64-Bit Server VM
Default Encoding: UTF-8
Language: en
Country: US
--></g></svg>