<svg xmlns="http://www.w3.org/2000/svg" xmlns:xlink="http://www.w3.org/1999/xlink" width="528" height="1379" contentScriptType="application/ecmascript" contentStyleType="text/css" style="width:528px;height:1379px" preserveAspectRatio="none" version="1.1" viewBox="0 0 528 1379" zoomAndPan="magnify"><defs><filter id="fh1xwjt5is4kc" width="300%" height="300%" x="-1" y="-1"><feGaussianBlur result="blurOut" stdDeviation="2"/><feColorMatrix in="blurOut" result="blurOut2" type="matrix" values="0 0 0 0 0 0 0 0 0 0 0 0 0 0 0 0 0 0 .4 0"/><feOffset dx="4" dy="4" in="blurOut2" result="blurOut3"/><feBlend in="SourceGraphic" in2="blurOut3" mode="normal"/></filter></defs><g><text x="111.5" y="26.708" fill="#000" font-family="sans-serif" font-size="18" lengthAdjust="spacingAndGlyphs" textLength="297">Page Installed/Available Buckets</text><text x="191" y="47.661" fill="#000" font-family="sans-serif" font-size="18" lengthAdjust="spacingAndGlyphs" textLength="144">Info Application</text><ellipse cx="144" cy="111.558" fill="#000" filter="url(#fh1xwjt5is4kc)" rx="10" ry="10" style="stroke:none;stroke-width:1"/><line style="stroke:#a80036;stroke-width:1.5" x1="119" x2="228.5" y1="141.558" y2="141.558"/><rect style="stroke:#a80036;stroke-width:1.5" width="141" height="33.969" x="48.5" y="161.558" fill="#FEFECE" filter="url(#fh1xwjt5is4kc)" rx="12.5" ry="12.5"/><text x="58.5" y="182.696" fill="#000" font-family="sans-serif" font-size="12" lengthAdjust="spacingAndGlyphs" textLength="121">Request ListBuckets</text><ellipse cx="228.5" cy="178.542" fill="#FFF" filter="url(#fh1xwjt5is4kc)" rx="11" ry="11" style="stroke:#000;stroke-width:1"/><ellipse cx="228.5" cy="178.542" fill="#000" rx="6" ry="6" style="stroke:#7f7f7f;stroke-width:1"/><line style="stroke:#a80036;stroke-width:1.5" x1="119" x2="144" y1="215.526" y2="215.526"/><rect style="stroke:#000;stroke-width:2" width="160" height="136.234" x="64" y="225.526" fill="#FFF" filter="url(#fh1xwjt5is4kc)"/><path fill="none" d="M132,226.5264 L132,234.8232 L122,244.8232 L64,244.8232" style="stroke:#000;stroke-width:2"/><text x="67" y="239.522" fill="#000" font-family="sans-serif" font-size="14" lengthAdjust="spacingAndGlyphs" textLength="58">Buckets</text><rect style="stroke:#a80036;stroke-width:1.5" width="118" height="33.969" x="85" y="315.792" fill="#FEFECE" filter="url(#fh1xwjt5is4kc)" rx="12.5" ry="12.5"/><text x="95" y="336.931" fill="#000" font-family="sans-serif" font-size="12" lengthAdjust="spacingAndGlyphs" textLength="98">React formatting</text><line style="stroke:#a80036;stroke-width:1.5" x1="119" x2="254" y1="381.761" y2="381.761"/><rect style="stroke:#a80036;stroke-width:1.5" width="192" height="33.969" x="23" y="401.761" fill="#FEFECE" filter="url(#fh1xwjt5is4kc)" rx="12.5" ry="12.5"/><text x="33" y="422.899" fill="#000" font-family="sans-serif" font-size="12" lengthAdjust="spacingAndGlyphs" textLength="172">Request GetInstalledBuckets</text><ellipse cx="254" cy="418.745" fill="#FFF" filter="url(#fh1xwjt5is4kc)" rx="11" ry="11" style="stroke:#000;stroke-width:1"/><ellipse cx="254" cy="418.745" fill="#000" rx="6" ry="6" style="stroke:#7f7f7f;stroke-width:1"/><line style="stroke:#a80036;stroke-width:1.5" x1="119" x2="144" y1="455.729" y2="455.729"/><rect style="stroke:#000;stroke-width:2" width="211" height="136.234" x="38.5" y="465.729" fill="#FFF" filter="url(#fh1xwjt5is4kc)"/><path fill="none" d="M160.5,466.7295 L160.5,475.0264 L150.5,485.0264 L38.5,485.0264" style="stroke:#000;stroke-width:2"/><text x="41.5" y="479.725" fill="#000" font-family="sans-serif" font-size="14" lengthAdjust="spacingAndGlyphs" textLength="112">InsalledBuckets</text><rect style="stroke:#a80036;stroke-width:1.5" width="118" height="33.969" x="85" y="555.995" fill="#FEFECE" filter="url(#fh1xwjt5is4kc)" rx="12.5" ry="12.5"/><text x="95" y="577.134" fill="#000" font-family="sans-serif" font-size="12" lengthAdjust="spacingAndGlyphs" textLength="98">React formatting</text><line style="stroke:#a80036;stroke-width:1.5" x1="119" x2="256" y1="621.964" y2="621.964"/><rect style="stroke:#a80036;stroke-width:1.5" width="196" height="33.969" x="21" y="641.964" fill="#FEFECE" filter="url(#fh1xwjt5is4kc)" rx="12.5" ry="12.5"/><text x="31" y="663.102" fill="#000" font-family="sans-serif" font-size="12" lengthAdjust="spacingAndGlyphs" textLength="176">Request GetAvailableBuckets</text><ellipse cx="256" cy="658.948" fill="#FFF" filter="url(#fh1xwjt5is4kc)" rx="11" ry="11" style="stroke:#000;stroke-width:1"/><ellipse cx="256" cy="658.948" fill="#000" rx="6" ry="6" style="stroke:#7f7f7f;stroke-width:1"/><line style="stroke:#a80036;stroke-width:1.5" x1="119" x2="144" y1="695.933" y2="695.933"/><rect style="stroke:#000;stroke-width:2" width="215" height="136.234" x="36.5" y="705.933" fill="#FFF" filter="url(#fh1xwjt5is4kc)"/><path fill="none" d="M169.5,706.9326 L169.5,715.2295 L159.5,725.2295 L36.5,725.2295" style="stroke:#000;stroke-width:2"/><text x="39.5" y="719.928" fill="#000" font-family="sans-serif" font-size="14" lengthAdjust="spacingAndGlyphs" textLength="123">AvailableBuckets</text><rect style="stroke:#a80036;stroke-width:1.5" width="118" height="33.969" x="85" y="796.198" fill="#FEFECE" filter="url(#fh1xwjt5is4kc)" rx="12.5" ry="12.5"/><text x="95" y="817.337" fill="#000" font-family="sans-serif" font-size="12" lengthAdjust="spacingAndGlyphs" textLength="98">React formatting</text><line style="stroke:#a80036;stroke-width:1.5" x1="119" x2="247.5" y1="862.167" y2="862.167"/><rect style="stroke:#a80036;stroke-width:1.5" width="179" height="33.969" x="29.5" y="882.167" fill="#FEFECE" filter="url(#fh1xwjt5is4kc)" rx="12.5" ry="12.5"/><text x="39.5" y="903.306" fill="#000" font-family="sans-serif" font-size="12" lengthAdjust="spacingAndGlyphs" textLength="159">Request GetAvailableApps</text><ellipse cx="247.5" cy="899.151" fill="#FFF" filter="url(#fh1xwjt5is4kc)" rx="11" ry="11" style="stroke:#000;stroke-width:1"/><ellipse cx="247.5" cy="899.151" fill="#000" rx="6" ry="6" style="stroke:#7f7f7f;stroke-width:1"/><line style="stroke:#a80036;stroke-width:1.5" x1="119" x2="144" y1="936.136" y2="936.136"/><rect style="stroke:#000;stroke-width:2" width="198" height="136.234" x="45" y="946.136" fill="#FFF" filter="url(#fh1xwjt5is4kc)"/><path fill="none" d="M157,947.1357 L157,955.4326 L147,965.4326 L45,965.4326" style="stroke:#000;stroke-width:2"/><text x="48" y="960.131" fill="#000" font-family="sans-serif" font-size="14" lengthAdjust="spacingAndGlyphs" textLength="102">AvailableApps</text><rect style="stroke:#a80036;stroke-width:1.5" width="118" height="33.969" x="85" y="1036.401" fill="#FEFECE" filter="url(#fh1xwjt5is4kc)" rx="12.5" ry="12.5"/><text x="95" y="1057.54" fill="#000" font-family="sans-serif" font-size="12" lengthAdjust="spacingAndGlyphs" textLength="98">React formatting</text><line style="stroke:#a80036;stroke-width:1.5" x1="119" x2="228" y1="1102.37" y2="1102.37"/><rect style="stroke:#a80036;stroke-width:1.5" width="140" height="33.969" x="49" y="1122.37" fill="#FEFECE" filter="url(#fh1xwjt5is4kc)" rx="12.5" ry="12.5"/><text x="59" y="1143.509" fill="#000" font-family="sans-serif" font-size="12" lengthAdjust="spacingAndGlyphs" textLength="120">Request GetAppinfo</text><ellipse cx="228" cy="1139.354" fill="#FFF" filter="url(#fh1xwjt5is4kc)" rx="11" ry="11" style="stroke:#000;stroke-width:1"/><ellipse cx="228" cy="1139.354" fill="#000" rx="6" ry="6" style="stroke:#7f7f7f;stroke-width:1"/><line style="stroke:#a80036;stroke-width:1.5" x1="119" x2="144" y1="1176.339" y2="1176.339"/><rect style="stroke:#000;stroke-width:2" width="159" height="136.234" x="64.5" y="1186.339" fill="#FFF" filter="url(#fh1xwjt5is4kc)"/><path fill="none" d="M132.5,1187.3389 L132.5,1195.6357 L122.5,1205.6357 L64.5,1205.6357" style="stroke:#000;stroke-width:2"/><text x="67.5" y="1200.334" fill="#000" font-family="sans-serif" font-size="14" lengthAdjust="spacingAndGlyphs" textLength="58">AppInfo</text><rect style="stroke:#a80036;stroke-width:1.5" width="118" height="33.969" x="85" y="1276.604" fill="#FEFECE" filter="url(#fh1xwjt5is4kc)" rx="12.5" ry="12.5"/><text x="95" y="1297.743" fill="#000" font-family="sans-serif" font-size="12" lengthAdjust="spacingAndGlyphs" textLength="98">React formatting</text><ellipse cx="144" cy="1352.573" fill="#FFF" filter="url(#fh1xwjt5is4kc)" rx="10" ry="10" style="stroke:#000;stroke-width:1.5"/><line style="stroke:#000;stroke-width:2.5" x1="137.813" x2="150.187" y1="1346.386" y2="1358.76"/><line style="stroke:#000;stroke-width:2.5" x1="150.187" x2="137.813" y1="1346.386" y2="1358.76"/><line style="stroke:#000;stroke-width:2" x1="15" x2="15" y1="75.605" y2="1362.573"/><rect style="stroke:#000;stroke-width:2" width="160" height="136.234" x="310.5" y="225.526" fill="#FFF" filter="url(#fh1xwjt5is4kc)"/><path fill="none" d="M378.5,226.5264 L378.5,234.8232 L368.5,244.8232 L310.5,244.8232" style="stroke:#000;stroke-width:2"/><text x="313.5" y="239.522" fill="#000" font-family="sans-serif" font-size="14" lengthAdjust="spacingAndGlyphs" textLength="58">Buckets</text><rect style="stroke:#a80036;stroke-width:1.5" width="140" height="33.969" x="320.5" y="261.823" fill="#FEFECE" filter="url(#fh1xwjt5is4kc)" rx="12.5" ry="12.5"/><text x="330.5" y="282.962" fill="#000" font-family="sans-serif" font-size="12" lengthAdjust="spacingAndGlyphs" textLength="120">Process ListBuckets</text><rect style="stroke:#000;stroke-width:2" width="211" height="136.234" x="285" y="465.729" fill="#FFF" filter="url(#fh1xwjt5is4kc)"/><path fill="none" d="M407,466.7295 L407,475.0264 L397,485.0264 L285,485.0264" style="stroke:#000;stroke-width:2"/><text x="288" y="479.725" fill="#000" font-family="sans-serif" font-size="14" lengthAdjust="spacingAndGlyphs" textLength="112">InsalledBuckets</text><rect style="stroke:#a80036;stroke-width:1.5" width="191" height="33.969" x="295" y="502.026" fill="#FEFECE" filter="url(#fh1xwjt5is4kc)" rx="12.5" ry="12.5"/><text x="305" y="523.165" fill="#000" font-family="sans-serif" font-size="12" lengthAdjust="spacingAndGlyphs" textLength="171">Process GetInstalledBuckets</text><rect style="stroke:#000;stroke-width:2" width="215" height="136.234" x="283" y="705.933" fill="#FFF" filter="url(#fh1xwjt5is4kc)"/><path fill="none" d="M416,706.9326 L416,715.2295 L406,725.2295 L283,725.2295" style="stroke:#000;stroke-width:2"/><text x="286" y="719.928" fill="#000" font-family="sans-serif" font-size="14" lengthAdjust="spacingAndGlyphs" textLength="123">AvailableBuckets</text><rect style="stroke:#a80036;stroke-width:1.5" width="195" height="33.969" x="293" y="742.23" fill="#FEFECE" filter="url(#fh1xwjt5is4kc)" rx="12.5" ry="12.5"/><text x="303" y="763.368" fill="#000" font-family="sans-serif" font-size="12" lengthAdjust="spacingAndGlyphs" textLength="175">Process GetAvailableBuckets</text><rect style="stroke:#000;stroke-width:2" width="198" height="136.234" x="291.5" y="946.136" fill="#FFF" filter="url(#fh1xwjt5is4kc)"/><path fill="none" d="M403.5,947.1357 L403.5,955.4326 L393.5,965.4326 L291.5,965.4326" style="stroke:#000;stroke-width:2"/><text x="294.5" y="960.131" fill="#000" font-family="sans-serif" font-size="14" lengthAdjust="spacingAndGlyphs" textLength="102">AvailableApps</text><rect style="stroke:#a80036;stroke-width:1.5" width="178" height="33.969" x="301.5" y="982.433" fill="#FEFECE" filter="url(#fh1xwjt5is4kc)" rx="12.5" ry="12.5"/><text x="311.5" y="1003.571" fill="#000" font-family="sans-serif" font-size="12" lengthAdjust="spacingAndGlyphs" textLength="158">Process GetAvailableApps</text><rect style="stroke:#000;stroke-width:2" width="159" height="136.234" x="311" y="1186.339" fill="#FFF" filter="url(#fh1xwjt5is4kc)"/><path fill="none" d="M379,1187.3389 L379,1195.6357 L369,1205.6357 L311,1205.6357" style="stroke:#000;stroke-width:2"/><text x="314" y="1200.334" fill="#000" font-family="sans-serif" font-size="14" lengthAdjust="spacingAndGlyphs" textLength="58">AppInfo</text><rect style="stroke:#a80036;stroke-width:1.5" width="139" height="33.969" x="321" y="1222.636" fill="#FEFECE" filter="url(#fh1xwjt5is4kc)" rx="12.5" ry="12.5"/><text x="331" y="1243.774" fill="#000" font-family="sans-serif" font-size="12" lengthAdjust="spacingAndGlyphs" textLength="119">Process GetAppinfo</text><line style="stroke:#000;stroke-width:2" x1="277" x2="277" y1="75.605" y2="1362.573"/><line style="stroke:#000;stroke-width:2" x1="508" x2="508" y1="75.605" y2="1362.573"/><line style="stroke:#a80036;stroke-width:1.5" x1="119" x2="119" y1="143.058" y2="161.558"/><polygon fill="#A80036" points="115 151.558 119 161.558 123 151.558 119 155.558" style="stroke:#a80036;stroke-width:1"/><line style="stroke:#a80036;stroke-width:1.5" x1="228.5" x2="228.5" y1="143.058" y2="167.542"/><polygon fill="#A80036" points="224.5 157.542 228.5 167.542 232.5 157.542 228.5 161.542" style="stroke:#a80036;stroke-width:1"/><line style="stroke:#a80036;stroke-width:1.5" x1="119" x2="119" y1="195.526" y2="215.526"/><polygon fill="#A80036" points="115 205.526 119 215.526 123 205.526 119 209.526" style="stroke:#a80036;stroke-width:1"/><line style="stroke:#a80036;stroke-width:1.5" x1="144" x2="144" y1="121.558" y2="141.558"/><polygon fill="#A80036" points="140 131.558 144 141.558 148 131.558 144 135.558" style="stroke:#a80036;stroke-width:1"/><line style="stroke:#a80036;stroke-width:1.5" x1="119" x2="119" y1="383.261" y2="401.761"/><polygon fill="#A80036" points="115 391.761 119 401.761 123 391.761 119 395.761" style="stroke:#a80036;stroke-width:1"/><line style="stroke:#a80036;stroke-width:1.5" x1="254" x2="254" y1="383.261" y2="407.745"/><polygon fill="#A80036" points="250 397.745 254 407.745 258 397.745 254 401.745" style="stroke:#a80036;stroke-width:1"/><line style="stroke:#a80036;stroke-width:1.5" x1="119" x2="119" y1="435.729" y2="455.729"/><polygon fill="#A80036" points="115 445.729 119 455.729 123 445.729 119 449.729" style="stroke:#a80036;stroke-width:1"/><line style="stroke:#a80036;stroke-width:1.5" x1="144" x2="144" y1="349.761" y2="381.761"/><polygon fill="#A80036" points="140 371.761 144 381.761 148 371.761 144 375.761" style="stroke:#a80036;stroke-width:1"/><line style="stroke:#a80036;stroke-width:1.5" x1="119" x2="119" y1="623.464" y2="641.964"/><polygon fill="#A80036" points="115 631.964 119 641.964 123 631.964 119 635.964" style="stroke:#a80036;stroke-width:1"/><line style="stroke:#a80036;stroke-width:1.5" x1="256" x2="256" y1="623.464" y2="647.948"/><polygon fill="#A80036" points="252 637.948 256 647.948 260 637.948 256 641.948" style="stroke:#a80036;stroke-width:1"/><line style="stroke:#a80036;stroke-width:1.5" x1="119" x2="119" y1="675.933" y2="695.933"/><polygon fill="#A80036" points="115 685.933 119 695.933 123 685.933 119 689.933" style="stroke:#a80036;stroke-width:1"/><line style="stroke:#a80036;stroke-width:1.5" x1="144" x2="144" y1="589.964" y2="621.964"/><polygon fill="#A80036" points="140 611.964 144 621.964 148 611.964 144 615.964" style="stroke:#a80036;stroke-width:1"/><line style="stroke:#a80036;stroke-width:1.5" x1="119" x2="119" y1="863.667" y2="882.167"/><polygon fill="#A80036" points="115 872.167 119 882.167 123 872.167 119 876.167" style="stroke:#a80036;stroke-width:1"/><line style="stroke:#a80036;stroke-width:1.5" x1="247.5" x2="247.5" y1="863.667" y2="888.151"/><polygon fill="#A80036" points="243.5 878.151 247.5 888.151 251.5 878.151 247.5 882.151" style="stroke:#a80036;stroke-width:1"/><line style="stroke:#a80036;stroke-width:1.5" x1="119" x2="119" y1="916.136" y2="936.136"/><polygon fill="#A80036" points="115 926.136 119 936.136 123 926.136 119 930.136" style="stroke:#a80036;stroke-width:1"/><line style="stroke:#a80036;stroke-width:1.5" x1="144" x2="144" y1="830.167" y2="862.167"/><polygon fill="#A80036" points="140 852.167 144 862.167 148 852.167 144 856.167" style="stroke:#a80036;stroke-width:1"/><line style="stroke:#a80036;stroke-width:1.5" x1="119" x2="119" y1="1103.87" y2="1122.37"/><polygon fill="#A80036" points="115 1112.37 119 1122.37 123 1112.37 119 1116.37" style="stroke:#a80036;stroke-width:1"/><line style="stroke:#a80036;stroke-width:1.5" x1="228" x2="228" y1="1103.87" y2="1128.354"/><polygon fill="#A80036" points="224 1118.354 228 1128.354 232 1118.354 228 1122.354" style="stroke:#a80036;stroke-width:1"/><line style="stroke:#a80036;stroke-width:1.5" x1="119" x2="119" y1="1156.339" y2="1176.339"/><polygon fill="#A80036" points="115 1166.339 119 1176.339 123 1166.339 119 1170.339" style="stroke:#a80036;stroke-width:1"/><line style="stroke:#a80036;stroke-width:1.5" x1="144" x2="144" y1="1070.37" y2="1102.37"/><polygon fill="#A80036" points="140 1092.37 144 1102.37 148 1092.37 144 1096.37" style="stroke:#a80036;stroke-width:1"/><line style="stroke:#a80036;stroke-width:1.5" x1="144" x2="144" y1="1310.573" y2="1342.573"/><polygon fill="#A80036" points="140 1332.573 144 1342.573 148 1332.573 144 1336.573" style="stroke:#a80036;stroke-width:1"/><line style="stroke:#a80036;stroke-width:1.5" x1="390.5" x2="390.5" y1="295.792" y2="300.792"/><line style="stroke:#a80036;stroke-width:1.5" x1="390.5" x2="144" y1="300.792" y2="300.792"/><line style="stroke:#a80036;stroke-width:1.5" x1="144" x2="144" y1="300.792" y2="315.792"/><polygon fill="#A80036" points="140 305.792 144 315.792 148 305.792 144 309.792" style="stroke:#a80036;stroke-width:1"/><line style="stroke:#a80036;stroke-width:1.5" x1="144" x2="144" y1="217.026" y2="226.175"/><line style="stroke:#a80036;stroke-width:1.5" x1="144" x2="390.5" y1="226.175" y2="226.175"/><line style="stroke:#a80036;stroke-width:1.5" x1="390.5" x2="390.5" y1="226.175" y2="261.823"/><polygon fill="#A80036" points="386.5 251.823 390.5 261.823 394.5 251.823 390.5 255.823" style="stroke:#a80036;stroke-width:1"/><line style="stroke:#a80036;stroke-width:1.5" x1="390.5" x2="390.5" y1="535.995" y2="540.995"/><line style="stroke:#a80036;stroke-width:1.5" x1="390.5" x2="144" y1="540.995" y2="540.995"/><line style="stroke:#a80036;stroke-width:1.5" x1="144" x2="144" y1="540.995" y2="555.995"/><polygon fill="#A80036" points="140 545.995 144 555.995 148 545.995 144 549.995" style="stroke:#a80036;stroke-width:1"/><line style="stroke:#a80036;stroke-width:1.5" x1="144" x2="144" y1="457.229" y2="466.378"/><line style="stroke:#a80036;stroke-width:1.5" x1="144" x2="390.5" y1="466.378" y2="466.378"/><line style="stroke:#a80036;stroke-width:1.5" x1="390.5" x2="390.5" y1="466.378" y2="502.026"/><polygon fill="#A80036" points="386.5 492.026 390.5 502.026 394.5 492.026 390.5 496.026" style="stroke:#a80036;stroke-width:1"/><line style="stroke:#a80036;stroke-width:1.5" x1="390.5" x2="390.5" y1="776.198" y2="781.198"/><line style="stroke:#a80036;stroke-width:1.5" x1="390.5" x2="144" y1="781.198" y2="781.198"/><line style="stroke:#a80036;stroke-width:1.5" x1="144" x2="144" y1="781.198" y2="796.198"/><polygon fill="#A80036" points="140 786.198 144 796.198 148 786.198 144 790.198" style="stroke:#a80036;stroke-width:1"/><line style="stroke:#a80036;stroke-width:1.5" x1="144" x2="144" y1="697.433" y2="706.581"/><line style="stroke:#a80036;stroke-width:1.5" x1="144" x2="390.5" y1="706.581" y2="706.581"/><line style="stroke:#a80036;stroke-width:1.5" x1="390.5" x2="390.5" y1="706.581" y2="742.23"/><polygon fill="#A80036" points="386.5 732.23 390.5 742.23 394.5 732.23 390.5 736.23" style="stroke:#a80036;stroke-width:1"/><line style="stroke:#a80036;stroke-width:1.5" x1="390.5" x2="390.5" y1="1016.401" y2="1021.401"/><line style="stroke:#a80036;stroke-width:1.5" x1="390.5" x2="144" y1="1021.401" y2="1021.401"/><line style="stroke:#a80036;stroke-width:1.5" x1="144" x2="144" y1="1021.401" y2="1036.401"/><polygon fill="#A80036" points="140 1026.401 144 1036.401 148 1026.401 144 1030.401" style="stroke:#a80036;stroke-width:1"/><line style="stroke:#a80036;stroke-width:1.5" x1="144" x2="144" y1="937.636" y2="946.784"/><line style="stroke:#a80036;stroke-width:1.5" x1="144" x2="390.5" y1="946.784" y2="946.784"/><line style="stroke:#a80036;stroke-width:1.5" x1="390.5" x2="390.5" y1="946.784" y2="982.433"/><polygon fill="#A80036" points="386.5 972.433 390.5 982.433 394.5 972.433 390.5 976.433" style="stroke:#a80036;stroke-width:1"/><line style="stroke:#a80036;stroke-width:1.5" x1="390.5" x2="390.5" y1="1256.604" y2="1261.604"/><line style="stroke:#a80036;stroke-width:1.5" x1="390.5" x2="144" y1="1261.604" y2="1261.604"/><line style="stroke:#a80036;stroke-width:1.5" x1="144" x2="144" y1="1261.604" y2="1276.604"/><polygon fill="#A80036" points="140 1266.604 144 1276.604 148 1266.604 144 1270.604" style="stroke:#a80036;stroke-width:1"/><line style="stroke:#a80036;stroke-width:1.5" x1="144" x2="144" y1="1177.839" y2="1186.987"/><line style="stroke:#a80036;stroke-width:1.5" x1="144" x2="390.5" y1="1186.987" y2="1186.987"/><line style="stroke:#a80036;stroke-width:1.5" x1="390.5" x2="390.5" y1="1186.987" y2="1222.636"/><polygon fill="#A80036" points="386.5 1212.636 390.5 1222.636 394.5 1212.636 390.5 1216.636" style="stroke:#a80036;stroke-width:1"/><text x="107.5" y="92.313" fill="#000" font-family="sans-serif" font-size="18" lengthAdjust="spacingAndGlyphs" textLength="77">WebApp</text><text x="338" y="92.313" fill="#000" font-family="sans-serif" font-size="18" lengthAdjust="spacingAndGlyphs" textLength="109">WebService</text></g></svg>